<?xml version="1.0" encoding="UTF-8" standalone="no"?>
<!DOCTYPE svg PUBLIC "-//W3C//DTD SVG 20010904//EN" "http://www.w3.org/TR/2001/REC-SVG-20010904/DTD/svg10.dtd">
<svg version="1.0" xmlns="http://www.w3.org/2000/svg" width="531.000000pt" height="615.000000pt" viewBox="0 0 531.000000 615.000000" preserveAspectRatio="xMidYMid meet">
<metadata>
Created by potrace 1.10, written by Peter Selinger 2001-2011
</metadata>
<g transform="translate(0.000000,615.000000) scale(0.100000,-0.100000)" fill="#0888c1" stroke="none">
<path d="M2630 6131 c0 -11 -11 -23 -27 -30 -16 -6 -41 -20 -58 -31 -16 -11 -37 -22 -45 -26 -8 -3 -22 -10 -30 -15 -8 -5 -23 -12 -32 -15 -10 -4 -18 -10 -18 -14 0 -5 -12 -13 -27 -19 -16 -6 -41 -20 -58 -31 -16 -11 -39 -24 -50 -30 -11 -6 -33 -19 -50 -30 -16 -11 -39 -24 -50 -30 -11 -5 -47 -26 -80 -45 -33 -19 -69 -39 -80 -45 -11 -6 -33 -19 -50 -30 -16 -10 -50 -29 -75 -42 -25 -13 -47 -26 -50 -30 -3 -4 -17 -12 -30 -18 -14 -5 -38 -19 -55 -30 -16 -11 -39 -24 -50 -30 -11 -6 -33 -19 -50 -29 -16 -11 -50 -31 -75 -44 -25 -14 -61 -34 -80 -46 -19 -11 -44 -25 -55 -31 -11 -6 -33 -19 -50 -30 -16 -11 -37 -22 -45 -26 -8 -3 -22 -10 -30 -15 -8 -5 -23 -12 -32 -15 -10 -4 -18 -10 -18 -14 0 -5 -12 -13 -27 -19 -16 -6 -41 -20 -58 -31 -16 -11 -39 -24 -50 -30 -42 -23 -67 -38 -78 -49 -6 -6 -19 -11 -29 -11 -10 0 -18 -4 -18 -8 0 -4 -24 -20 -53 -35 -28 -16 -65 -37 -82 -47 -16 -11 -39 -24 -50 -30 -20 -10 -38 -20 -72 -40 -10 -6 -26 -13 -35 -16 -10 -4 -18 -10 -18 -14 0 -5 -12 -13 -28 -19 -15 -6 -40 -20 -57 -31 -16 -11 -39 -24 -50 -30 -11 -6 -33 -19 -50 -30 -16 -11 -39 -24 -50 -30 -11 -5 -47 -26 -80 -45 -33 -19 -69 -39 -80 -45 -11 -6 -33 -19 -50 -30 -16 -11 -37 -22 -45 -26 -8 -3 -22 -10 -30 -15 -8 -5 -23 -12 -32 -15 -10 -4 -18 -10 -18 -14 0 -5 -12 -13 -27 -19 -16 -6 -41 -20 -58 -31 -16 -11 -36 -23 -42 -26 -10 -5 -13 -322 -13 -1536 l0 -1530 23 -19 c12 -10 27 -18 33 -19 6 0 17 -7 24 -15 7 -8 19 -15 26 -15 8 0 33 -13 56 -30 22 -16 47 -30 55 -30 7 0 16 -7 19 -15 4 -8 14 -15 23 -15 9 0 22 -5 28 -11 12 -12 24 -19 108 -63 30 -16 55 -33 55 -38 0 -4 8 -8 18 -8 10 0 23 -5 29 -11 11 -11 36 -26 78 -49 11 -6 34 -19 50 -30 17 -11 42 -25 58 -31 15 -6 27 -14 27 -19 0 -4 8 -10 17 -14 10 -3 25 -10 33 -15 8 -5 22 -12 30 -15 8 -4 29 -15 45 -26 17 -11 39 -24 50 -30 11 -6 47 -26 80 -45 33 -19 69 -40 80 -45 11 -6 34 -19 50 -30 17 -11 39 -24 50 -30 11 -6 34 -19 50 -30 17 -11 41 -25 55 -30 13 -6 27 -14 30 -18 3 -4 25 -17 50 -30 25 -13 59 -32 75 -42 17 -11 39 -24 50 -30 11 -6 47 -26 80 -45 33 -19 69 -40 80 -45 11 -6 34 -19 50 -30 17 -11 39 -24 50 -30 11 -6 34 -19 50 -30 17 -11 42 -25 58 -31 15 -6 27 -14 27 -19 0 -4 8 -10 18 -14 9 -3 24 -10 32 -15 8 -5 22 -12 30 -15 8 -4 29 -15 45 -26 17 -11 39 -24 50 -30 11 -6 47 -26 80 -45 33 -19 69 -40 80 -45 11 -6 34 -19 50 -30 17 -11 39 -24 50 -30 11 -6 34 -19 50 -30 17 -11 41 -25 55 -30 13 -6 27 -14 30 -18 3 -4 25 -17 50 -30 25 -13 59 -32 75 -43 17 -10 42 -24 58 -30 15 -6 27 -15 27 -20 0 -5 7 -9 15 -9 8 0 15 4 15 9 0 5 12 14 28 20 15 7 54 27 87 46 33 19 68 38 78 41 9 4 17 10 17 14 0 5 12 13 28 19 15 6 41 20 57 31 17 11 37 23 45 27 8 3 33 18 55 32 22 14 60 36 84 49 24 13 58 33 75 43 17 10 40 23 51 29 11 6 34 19 50 30 17 11 37 22 45 26 8 3 22 10 30 15 8 5 23 12 33 15 9 4 17 10 17 14 0 5 12 13 28 19 15 6 41 20 57 31 17 11 39 24 50 30 11 6 34 19 50 29 17 11 50 31 75 44 25 14 61 34 80 46 19 11 44 25 55 31 11 6 34 19 50 30 17 10 50 29 75 42 25 13 47 26 50 30 3 4 17 12 30 18 14 5 39 19 55 30 17 11 39 24 50 30 11 6 34 19 50 29 17 11 50 31 75 44 25 14 61 34 80 46 19 11 44 25 55 31 11 6 34 19 50 30 17 11 37 22 45 26 8 3 22 10 30 15 8 5 23 12 33 15 9 4 17 10 17 14 0 5 12 13 28 19 15 6 41 20 57 31 17 11 39 24 50 30 11 6 34 19 50 30 17 11 39 24 50 30 11 5 47 26 80 45 33 19 70 39 82 44 11 6 24 15 28 20 3 6 14 11 25 11 10 0 20 7 24 15 3 8 13 15 22 15 9 0 33 14 54 30 21 17 45 30 53 30 8 0 20 7 27 15 7 8 18 15 25 15 7 0 18 7 25 15 7 8 21 15 31 15 19 0 19 40 19 1535 0 1471 -1 1535 -18 1535 -10 0 -23 5 -29 11 -14 14 -50 35 -85 50 -16 6 -28 15 -28 20 0 5 -6 9 -14 9 -7 0 -19 7 -26 15 -7 8 -21 15 -32 15 -10 0 -21 7 -24 15 -4 8 -14 15 -24 15 -11 0 -22 5 -25 11 -4 5 -17 14 -28 20 -12 5 -49 25 -82 44 -33 19 -69 40 -80 45 -11 6 -33 19 -50 30 -16 11 -39 24 -50 30 -11 6 -33 19 -50 30 -16 11 -41 25 -55 30 -13 6 -27 15 -30 19 -3 4 -26 18 -52 30 -27 13 -48 27 -48 32 0 5 -8 9 -18 9 -10 0 -23 5 -29 11 -13 13 -26 21 -107 64 -31 16 -56 33 -56 37 0 4 -8 8 -18 8 -10 0 -23 5 -29 11 -11 11 -36 26 -78 49 -11 6 -33 19 -50 30 -16 11 -42 25 -57 31 -16 6 -28 14 -28 19 0 4 -8 10 -17 14 -10 3 -25 10 -33 15 -8 5 -22 12 -30 15 -8 4 -28 15 -45 26 -16 11 -39 24 -50 30 -11 6 -47 26 -80 45 -33 19 -69 40 -80 45 -11 6 -33 19 -50 30 -16 11 -39 24 -50 30 -11 6 -33 19 -50 30 -16 11 -41 25 -55 30 -13 6 -27 14 -30 18 -3 4 -25 17 -50 30 -25 13 -58 32 -75 42 -16 11 -39 24 -50 30 -11 6 -47 26 -80 45 -33 19 -69 40 -80 45 -11 6 -33 19 -50 30 -16 11 -39 24 -50 30 -11 6 -33 19 -50 30 -16 11 -42 25 -57 31 -16 6 -28 14 -28 19 0 4 -8 10 -17 14 -10 3 -25 10 -33 15 -8 5 -22 12 -30 15 -8 4 -28 15 -45 26 -16 11 -42 25 -57 31 -17 7 -28 19 -28 30 0 10 -7 19 -15 19 -8 0 -15 -9 -15 -19z m-652 -1170 c29 -10 58 -23 65 -30 6 -6 17 -11 25 -11 8 0 28 -7 45 -14 95 -44 380 -27 512 30 17 7 46 20 67 28 46 20 168 20 223 1 22 -8 55 -15 74 -15 34 0 96 -31 118 -60 21 -26 15 -120 -10 -162 -32 -54 -81 -122 -89 -126 -5 -2 -8 -8 -8 -13 0 -11 -42 -72 -52 -77 -5 -2 -8 -8 -8 -13 0 -5 -19 -36 -42 -68 -24 -33 -59 -83 -78 -111 -19 -28 -41 -58 -48 -66 -11 -12 -88 -14 -477 -14 l-463 0 -26 34 c-14 19 -26 38 -26 43 0 4 -14 23 -30 42 -17 18 -30 40 -30 47 0 8 -4 14 -9 14 -4 0 -24 24 -43 53 -19 28 -70 104 -113 167 -75 110 -78 117 -79 174 -1 57 0 59 43 96 34 30 54 39 100 44 31 4 79 11 106 15 94 15 198 12 253 -8z m850 -1000 c44 -33 96 -75 116 -94 l36 -35 0 -1119 c0 -857 -3 -1122 -12 -1131 -9 -9 -223 -12 -900 -12 -767 0 -894 2 -925 15 -19 8 -43 15 -53 15 -10 0 -23 7 -30 15 -7 8 -19 15 -27 15 -51 0 -252 181 -292 263 -12 26 -27 49 -32 53 -5 3 -9 15 -9 27 0 12 -7 31 -15 41 -8 11 -15 29 -15 40 0 12 -7 39 -15 61 -19 55 -19 275 0 330 8 22 15 50 15 61 0 12 7 27 15 34 8 7 15 21 15 31 0 11 13 45 30 76 16 31 30 64 30 74 0 10 4 20 9 24 6 3 21 29 36 58 14 28 29 59 34 67 5 8 12 22 15 30 4 8 15 29 26 45 11 17 25 42 31 58 6 15 15 27 20 27 5 0 9 6 9 14 0 8 6 21 13 28 7 7 16 20 20 28 12 25 103 156 137 197 5 7 10 16 10 20 0 4 13 22 28 38 15 17 50 59 77 95 98 130 467 485 557 536 11 7 25 17 31 23 8 8 146 11 473 11 l462 0 80 -59z m1799 -413 l23 -21 0 -931 c0 -512 -4 -936 -8 -942 -4 -5 -23 -20 -43 -32 l-36 -22 -705 0 c-615 0 -707 2 -718 15 -7 8 -18 15 -26 15 -7 0 -20 10 -28 22 -14 20 -16 126 -16 942 l0 920 27 28 27 28 740 0 740 0 23 -22z"/>
<path d="M2230 3581 c0 -33 -3 -66 -6 -75 -3 -8 -29 -22 -57 -31 -134 -42 -194 -87 -247 -188 -33 -61 -34 -64 -34 -189 0 -100 4 -131 16 -145 8 -10 18 -25 22 -33 24 -52 80 -108 131 -131 11 -5 27 -13 35 -18 8 -4 31 -15 50 -23 19 -8 52 -23 73 -32 21 -9 44 -16 52 -16 8 0 52 -17 97 -39 106 -50 133 -83 132 -162 -1 -73 -27 -116 -93 -152 -66 -35 -132 -36 -204 -3 -61 28 -97 66 -129 135 -25 55 -36 59 -91 36 -20 -8 -50 -15 -66 -15 -16 0 -33 -4 -36 -10 -3 -5 -15 -10 -26 -10 -23 0 -24 -17 -4 -44 8 -11 15 -30 15 -42 0 -12 7 -27 15 -34 8 -7 15 -19 15 -26 0 -24 100 -122 148 -145 26 -13 76 -31 111 -40 35 -10 68 -23 73 -31 5 -7 7 -48 6 -90 l-3 -78 40 0 c22 0 50 -3 63 -6 22 -6 22 -5 22 77 0 46 4 89 8 95 8 13 97 44 126 44 12 0 30 7 40 15 11 8 27 15 36 15 31 0 114 86 147 151 37 75 57 189 43 240 -6 19 -10 45 -10 58 0 43 -39 109 -95 160 -56 50 -119 84 -255 136 -25 9 -58 23 -73 31 -16 8 -37 14 -47 14 -9 0 -23 7 -30 15 -7 8 -18 15 -24 15 -21 1 -68 50 -77 83 -5 17 -7 53 -3 79 5 38 14 56 46 88 40 40 40 40 119 40 l79 0 55 -55 c30 -31 55 -61 55 -68 0 -6 9 -23 19 -37 19 -23 20 -24 39 -7 10 9 26 17 34 17 9 0 29 6 45 14 15 8 40 20 56 27 30 14 34 30 12 49 -8 7 -15 19 -15 26 0 23 -44 87 -83 121 -38 34 -93 61 -177 88 -30 9 -58 23 -62 29 -4 6 -8 39 -8 74 l0 62 -60 0 -60 0 0 -59z"/>
<path d="M3292 3394 c-21 -15 -22 -20 -22 -214 l0 -198 34 -21 c33 -21 44 -21 561 -21 480 0 530 2 556 17 l29 17 0 208 0 208 -26 10 c-15 6 -239 10 -567 10 -475 0 -545 -2 -565 -16z"/>
<path d="M3288 2773 c-16 -4 -18 -17 -18 -93 0 -78 2 -91 19 -100 23 -12 200 -13 219 -1 14 9 21 168 8 189 -7 12 -188 16 -228 5z"/>
<path d="M3751 2771 c-19 -12 -21 -156 -3 -182 11 -16 27 -19 112 -19 126 0 130 4 130 110 0 68 -3 81 -19 90 -24 12 -200 13 -220 1z"/>
<path d="M4218 2773 c-16 -4 -18 -17 -18 -98 0 -88 1 -93 23 -99 33 -9 200 -7 215 2 9 6 12 34 10 103 l-3 94 -105 1 c-58 1 -113 0 -122 -3z"/>
<path d="M3288 2399 c-15 -8 -18 -25 -18 -99 0 -78 2 -91 19 -100 26 -13 218 -13 226 0 4 6 7 51 7 100 0 49 -3 94 -7 100 -8 13 -204 13 -227 -1z"/>
<path d="M3744 2388 c-9 -30 -9 -146 0 -175 7 -22 12 -23 116 -23 129 0 130 1 130 110 0 109 -1 110 -130 110 -104 0 -109 -1 -116 -22z"/>
<path d="M4212 2398 c-16 -16 -16 -180 0 -196 16 -16 210 -16 226 0 16 16 16 180 0 196 -8 8 -48 12 -113 12 -65 0 -105 -4 -113 -12z"/>
<path d="M3288 2019 c-15 -8 -18 -25 -18 -98 0 -105 -6 -101 142 -101 65 0 99 4 104 12 13 21 6 180 -8 189 -19 12 -200 10 -220 -2z"/>
<path d="M3747 2008 c-18 -31 -15 -167 4 -179 22 -14 213 -11 227 3 7 7 12 43 12 89 0 105 -4 109 -130 109 -93 0 -100 -2 -113 -22z"/>
<path d="M4218 2023 c-16 -4 -18 -17 -18 -99 0 -111 -7 -106 145 -102 l100 3 3 94 c2 69 -1 97 -10 103 -13 8 -189 9 -220 1z"/>
</g>
</svg>